<?xml version="1.0" encoding="UTF-8" standalone="no"?>
<!-- Created with Inkscape (http://www.inkscape.org/) -->

<svg
   xmlns:dc="http://purl.org/dc/elements/1.1/"
   xmlns:cc="http://creativecommons.org/ns#"
   xmlns:rdf="http://www.w3.org/1999/02/22-rdf-syntax-ns#"
   xmlns:svg="http://www.w3.org/2000/svg"
   xmlns="http://www.w3.org/2000/svg"
   xmlns:xlink="http://www.w3.org/1999/xlink"
   xmlns:sodipodi="http://sodipodi.sourceforge.net/DTD/sodipodi-0.dtd"
   xmlns:inkscape="http://www.inkscape.org/namespaces/inkscape"
   width="100%"
   height="100%"
   style="position:absolute;z-index:20;"
   id="mainVideoSvg"
   version="1.1"
   inkscape:version="0.48.4 r9939"
   sodipodi:docname="videoCanvas2.svg"
   viewBox="0 0 1600 900">
  <sodipodi:namedview
     id="base"
     pagecolor="#ffffff"
     bordercolor="#666666"
     borderopacity="1.0"
     inkscape:pageopacity="0.0"
     inkscape:pageshadow="2"
     inkscape:zoom="0.25000001"
     inkscape:cx="88.297926"
     inkscape:cy="507.10822"
     inkscape:document-units="px"
     inkscape:current-layer="layer1"
     showgrid="false"
     inkscape:window-width="1280"
     inkscape:window-height="1004"
     inkscape:window-x="-4"
     inkscape:window-y="-1"
     inkscape:window-maximized="1"
     inkscape:showpageshadow="false" />
  <defs
     id="defs4">
    <inkscape:path-effect
       is_visible="true"
       id="path-effect3024"
       effect="spiro" />
    <inkscape:path-effect
       is_visible="true"
       id="path-effect3020"
       effect="spiro" />
    <inkscape:path-effect
       is_visible="true"
       id="path-effect3016"
       effect="spiro" />
    <inkscape:perspective
       id="perspective2991"
       inkscape:persp3d-origin="800 : 300 : 1"
       inkscape:vp_z="1600 : 450 : 1"
       inkscape:vp_y="0 : 1000 : 0"
       inkscape:vp_x="0 : 450 : 1"
       sodipodi:type="inkscape:persp3d" />
    <clipPath
       id="clipPath4407"
       clipPathUnits="userSpaceOnUse">
      <rect
         class="narratorVidAnim"
         y="310"
         x="606"
         height="56"
         width="48"
         id="rect4409"
         style="opacity:0.4592275;fill:#6176c0;fill-opacity:1;fill-rule:evenodd;stroke:none" />
    </clipPath>
    <clipPath
       id="clipPath4411"
       clipPathUnits="userSpaceOnUse">
      <rect
         class="narratorVidAnim"
         y="382"
         x="606"
         height="56"
         width="48"
         id="rect4413"
         style="opacity:0.4592275;fill:#6176c0;fill-opacity:1;fill-rule:evenodd;stroke:none" />
    </clipPath>
    <clipPath
       id="clipPath4415"
       clipPathUnits="userSpaceOnUse">
      <rect
         class="narratorVidAnim"
         y="454"
         x="604"
         height="56"
         width="48"
         id="rect4417"
         style="opacity:0.4592275;fill:#6176c0;fill-opacity:1;fill-rule:evenodd;stroke:none" />
    </clipPath>
    <clipPath
       id="clipPath4419"
       clipPathUnits="userSpaceOnUse">
      <rect
         class="narratorVidAnim"
         y="518"
         x="604"
         height="56"
         width="48"
         id="rect4421"
         style="opacity:0.4592275;fill:#6176c0;fill-opacity:1;fill-rule:evenodd;stroke:none" />
    </clipPath>
    <marker
       style="overflow:visible;"
       id="Arrow2LendM"
       refX="0.0"
       refY="0.0"
       orient="auto"
       inkscape:stockid="Arrow2LendM">
      <path
         transform="scale(1.1) rotate(180) translate(1,0)"
         d="M 8.7185878,4.0337352 L -2.2072895,0.016013256 L 8.7185884,-4.0017078 C 6.9730900,-1.6296469 6.9831476,1.6157441 8.7185878,4.0337352 z "
         style="stroke-linejoin:round;stroke:#bfaa30;stroke-width:0.62500000;fill:#bfaa30;fill-rule:evenodd"
         id="path4278" />
    </marker>
  </defs>
  <metadata
     id="metadata7">
    <rdf:RDF>
      <cc:Work
         rdf:about="">
        <dc:format>image/svg+xml</dc:format>
        <dc:type
           rdf:resource="http://purl.org/dc/dcmitype/StillImage" />
        <dc:title />
      </cc:Work>
    </rdf:RDF>
  </metadata>
  <g
     style="display:none"
     transform="translate(0,38.8)"
     id="mainPlayButton">
    <g
       transform="matrix(10.28348,0,0,10.28348,301.51,-90.386)"
       id="g3007">
      <path
         inkscape:connector-curvature="0"
         id="path4501"
         d="M 50,25 C 43.432,25 36.957,27.668 32.312,32.312 27.668,36.957 25,43.432 25,50 25,56.568 27.668,63.043 32.312,67.688 36.957,72.332 43.432,75 50,75 56.568,75 63.043,72.332 67.688,67.688 72.332,63.043 75,56.568 75,50 75,43.432 72.332,36.957 67.688,32.312 63.043,27.668 56.568,25 50,25 z m 0,3.625 c 5.5698,0 11.155,2.3428 15.094,6.2812 3.938,3.939 6.281,9.524 6.281,15.094 0,5.5698 -2.3428,11.155 -6.2812,15.094 -3.939,3.938 -9.524,6.281 -15.094,6.281 -5.57,0 -11.155,-2.343 -15.094,-6.281 -3.938,-3.939 -6.281,-9.524 -6.281,-15.094 0,-5.5698 2.3428,-11.155 6.2812,-15.094 3.939,-3.938 9.524,-6.281 15.094,-6.281 z"
         style="text-indent:0;text-align:start;text-transform:none;direction:ltr;block-progression:tb;baseline-shift:baseline;color:#000000;fill:#bfaa30;enable-background:accumulate" />
      <path
         inkscape:connector-curvature="0"
         id="path5622"
         style="fill:#bfaa30"
         d="m 64.536,50.318 -11.111,6.9745 -11.111,6.9745 0,-13.949 0,-13.949 11.111,6.9745 z" />
    </g>
    <path
       sodipodi:type="arc"
       style="opacity:0;fill:#000000;fill-opacity:1;stroke:none"
       id="path3096"
       sodipodi:cx="845.69971"
       sodipodi:cy="520.99078"
       sodipodi:rx="240.41631"
       sodipodi:ry="240.41631"
       d="m 1086.116,520.99078 c 0,132.77826 -107.63803,240.41631 -240.41629,240.41631 -132.77826,0 -240.41631,-107.63805 -240.41631,-240.41631 0,-132.77826 107.63805,-240.4163 240.41631,-240.4163 132.77826,0 240.41629,107.63804 240.41629,240.4163 z"
       transform="matrix(1.0581488,0,0,1.0581488,-78.77295,-128.10662)" />
  </g>
  <g
     sodipodi:insensitive="true"
     style="display:inline"
     inkscape:label="background"
     id="layer2"
     inkscape:groupmode="layer">
    <image
       height="900"
       width="1600"
       y="0"
       x="0"
       style="opacity:0.43347641"
       xlink:href="file:///home/user/code/svg-lab/dev/snapshot.png"
       id="image3056" />
  </g>
  <text
     clip-path="url(#clipPath4407)"
     sodipodi:linespacing="125%"
     id="text3775"
     y="352"
     x="680"
     style="font-size:28px;font-style:normal;font-weight:normal;line-height:125%;letter-spacing:0px;word-spacing:0px;fill:#000000;fill-opacity:1;stroke:none;font-family:Sans"
     xml:space="preserve"><tspan
       style="font-size:40px;fill:#6176c0;fill-opacity:1"
       y="352"
       x="660"
       id="tspan3777"
       sodipodi:role="line">Understands and Respects the Law</tspan></text>
  <text
     clip-path="url(#clipPath4411)"
     sodipodi:linespacing="125%"
     id="text3775-8"
     y="419.03516"
     x="680"
     style="font-size:28px;font-style:normal;font-weight:normal;line-height:125%;letter-spacing:0px;word-spacing:0px;fill:#000000;fill-opacity:1;stroke:none;font-family:Sans"
     xml:space="preserve"><tspan
       style="font-size:40px;fill:#6176c0;fill-opacity:1"
       y="419.03516"
       x="660"
       id="tspan3777-3"
       sodipodi:role="line">Keeps the Peace, No Unnecessary Aggression</tspan></text>
  <text
     clip-path="url(#clipPath4415)"
     sodipodi:linespacing="125%"
     id="text3775-8-1"
     y="493.03516"
     x="680"
     style="font-size:28px;font-style:normal;font-weight:normal;line-height:125%;letter-spacing:0px;word-spacing:0px;fill:#000000;fill-opacity:1;stroke:none;font-family:Sans"
     xml:space="preserve"><tspan
       style="font-size:40px;fill:#6176c0;fill-opacity:1"
       y="493.03516"
       x="660"
       id="tspan3777-3-2"
       sodipodi:role="line">Self Control, Acts as a Professional  </tspan></text>
  <text
     clip-path="url(#clipPath4419)"
     sodipodi:linespacing="125%"
     id="text3775-8-8"
     y="561.03516"
     x="680"
     style="font-size:28px;font-style:normal;font-weight:normal;line-height:125%;letter-spacing:0px;word-spacing:0px;fill:#000000;fill-opacity:1;stroke:none;font-family:Sans"
     xml:space="preserve"><tspan
       style="font-size:40px;fill:#6176c0;fill-opacity:1"
       y="561.03516"
       x="660"
       id="tspan3777-3-8"
       sodipodi:role="line">Acts on the Facts, Not His Imagination</tspan></text>
  <g
     inkscape:groupmode="layer"
     id="layer1"
     inkscape:label="norton">
    <path
       style="fill:none;stroke:#f31717;stroke-width:9.0000001;stroke-linecap:butt;stroke-linejoin:miter;stroke-opacity:1;stroke-miterlimit:4;stroke-dasharray:none"
       d="m 251.99999,568.00001 c 264,-215.99999 376.51294,-298.39757 567.99999,-227.99999 80.60883,29.63473 -38.61613,227.81462 120,227.99999 115.08442,0.1345 308.00002,-156 308.00002,-156"
       id="linePath"
       inkscape:connector-curvature="0"
       sodipodi:nodetypes="casc" />
  </g>
</svg>
